<svg xmlns="http://www.w3.org/2000/svg" xmlns:xlink="http://www.w3.org/1999/xlink" id="processonSvg1000" viewBox="132.0 265.2302427982811 730.5530817235151 556.5395144034378" width="730.5530817235151" height="556.5395144034378"><defs id="ProcessOnDefs1001"><marker id="ProcessOnMarker1077" markerUnits="userSpaceOnUse" orient="auto" markerWidth="16.23606797749979" markerHeight="10.550836550532098" viewBox="-1.0 -1.3763819204711736 16.23606797749979 10.550836550532098" refX="-1.0" refY="3.8990363547948754"><path id="ProcessOnPath1078" d="M12.0 3.8990363547948754L0.0 7.798072709589751V0.0Z" stroke="#323232" stroke-width="2.0" fill="#323232" transform="matrix(1.0,0.0,0.0,1.0,0.0,0.0)"/></marker><marker id="ProcessOnMarker1084" markerUnits="userSpaceOnUse" orient="auto" markerWidth="16.23606797749979" markerHeight="10.550836550532098" viewBox="-1.0 -1.3763819204711736 16.23606797749979 10.550836550532098" refX="-1.0" refY="3.8990363547948754"><path id="ProcessOnPath1085" d="M12.0 3.8990363547948754L0.0 7.798072709589751V0.0Z" stroke="#323232" stroke-width="2.0" fill="#323232" transform="matrix(1.0,0.0,0.0,1.0,0.0,0.0)"/></marker><marker id="ProcessOnMarker1091" markerUnits="userSpaceOnUse" orient="auto" markerWidth="16.23606797749979" markerHeight="10.550836550532098" viewBox="-1.0 -1.3763819204711736 16.23606797749979 10.550836550532098" refX="-1.0" refY="3.8990363547948754"><path id="ProcessOnPath1092" d="M12.0 3.8990363547948754L0.0 7.798072709589751V0.0Z" stroke="#323232" stroke-width="2.0" fill="#323232" transform="matrix(1.0,0.0,0.0,1.0,0.0,0.0)"/></marker><marker id="ProcessOnMarker1098" markerUnits="userSpaceOnUse" orient="auto" markerWidth="16.23606797749979" markerHeight="10.550836550532098" viewBox="-1.0 -1.3763819204711736 16.23606797749979 10.550836550532098" refX="-1.0" refY="3.8990363547948754"><path id="ProcessOnPath1099" d="M12.0 3.8990363547948754L0.0 7.798072709589751V0.0Z" stroke="#323232" stroke-width="2.0" fill="#323232" transform="matrix(1.0,0.0,0.0,1.0,0.0,0.0)"/></marker><marker id="ProcessOnMarker1117" markerUnits="userSpaceOnUse" orient="auto" markerWidth="16.23606797749979" markerHeight="10.550836550532098" viewBox="-1.0 -1.3763819204711736 16.23606797749979 10.550836550532098" refX="-1.0" refY="3.8990363547948754"><path id="ProcessOnPath1118" d="M12.0 3.8990363547948754L0.0 7.798072709589751V0.0Z" stroke="#323232" stroke-width="2.0" fill="#323232" transform="matrix(1.0,0.0,0.0,1.0,0.0,0.0)"/></marker><marker id="ProcessOnMarker1124" markerUnits="userSpaceOnUse" orient="auto" markerWidth="16.23606797749979" markerHeight="10.550836550532098" viewBox="-1.0 -1.3763819204711736 16.23606797749979 10.550836550532098" refX="-1.0" refY="3.8990363547948754"><path id="ProcessOnPath1125" d="M12.0 3.8990363547948754L0.0 7.798072709589751V0.0Z" stroke="#323232" stroke-width="2.0" fill="#323232" transform="matrix(1.0,0.0,0.0,1.0,0.0,0.0)"/></marker><marker id="ProcessOnMarker1131" markerUnits="userSpaceOnUse" orient="auto" markerWidth="16.23606797749979" markerHeight="10.550836550532098" viewBox="-1.0 -1.3763819204711736 16.23606797749979 10.550836550532098" refX="-1.0" refY="3.8990363547948754"><path id="ProcessOnPath1132" d="M12.0 3.8990363547948754L0.0 7.798072709589751V0.0Z" stroke="#323232" stroke-width="2.0" fill="#323232" transform="matrix(1.0,0.0,0.0,1.0,0.0,0.0)"/></marker><marker id="ProcessOnMarker1138" markerUnits="userSpaceOnUse" orient="auto" markerWidth="16.23606797749979" markerHeight="10.550836550532098" viewBox="-1.0 -1.3763819204711736 16.23606797749979 10.550836550532098" refX="-1.0" refY="3.8990363547948754"><path id="ProcessOnPath1139" d="M12.0 3.8990363547948754L0.0 7.798072709589751V0.0Z" stroke="#323232" stroke-width="2.0" fill="#323232" transform="matrix(1.0,0.0,0.0,1.0,0.0,0.0)"/></marker><marker id="ProcessOnMarker1145" markerUnits="userSpaceOnUse" orient="auto" markerWidth="16.23606797749979" markerHeight="10.550836550532098" viewBox="-1.0 -1.3763819204711736 16.23606797749979 10.550836550532098" refX="-1.0" refY="3.8990363547948754"><path id="ProcessOnPath1146" d="M12.0 3.8990363547948754L0.0 7.798072709589751V0.0Z" stroke="#323232" stroke-width="2.0" fill="#323232" transform="matrix(1.0,0.0,0.0,1.0,0.0,0.0)"/></marker><marker id="ProcessOnMarker1149" markerUnits="userSpaceOnUse" orient="auto" markerWidth="16.23606797749979" markerHeight="10.550836550532098" viewBox="-1.0 -1.3763819204711736 16.23606797749979 10.550836550532098" refX="-1.0" refY="3.8990363547948754"><path id="ProcessOnPath1150" d="M12.0 3.8990363547948754L0.0 7.798072709589751V0.0Z" stroke="#323232" stroke-width="2.0" fill="#323232" transform="matrix(1.0,0.0,0.0,1.0,0.0,0.0)"/></marker><marker id="ProcessOnMarker1153" markerUnits="userSpaceOnUse" orient="auto" markerWidth="16.23606797749979" markerHeight="10.550836550532098" viewBox="-1.0 -1.3763819204711736 16.23606797749979 10.550836550532098" refX="-1.0" refY="3.8990363547948754"><path id="ProcessOnPath1154" d="M12.0 3.8990363547948754L0.0 7.798072709589751V0.0Z" stroke="#323232" stroke-width="2.0" fill="#323232" transform="matrix(1.0,0.0,0.0,1.0,0.0,0.0)"/></marker></defs><g id="ProcessOnG1002"><path id="ProcessOnPath1003" d="M132.0 265.2302427982811H862.5530817235151V821.7697572017189H132.0V265.2302427982811Z" fill="#ffffff"/><g id="ProcessOnG1004"><g id="ProcessOnG1005" transform="matrix(1.0,0.0,0.0,1.0,152.0,429.2302427982811)" opacity="1.0"><path id="ProcessOnPath1006" d="M0.0 10.384878600859436L690.5530817235151 10.384878600859436" stroke="#888888" stroke-width="1.0" stroke-dasharray="5.0 2.0" opacity="1.0" fill="none"/><path id="ProcessOnPath1007" d="M0.0 0.0L690.5530817235151 0.0L690.5530817235151 20.76975720171887L0.0 20.76975720171887Z" stroke="none" stroke-width="0.0" stroke-dasharray="0.0 0.0" opacity="1.0" fill="none"/></g><g id="ProcessOnG1008" transform="matrix(1.0,0.0,0.0,1.0,253.68358395022767,603.0)" opacity="1.0"><path id="ProcessOnPath1009" d="M0.0 4.0Q0.0 0.0 4.0 0.0L549.3000420678084 0.0Q553.3000420678084 0.0 553.3000420678084 4.0L553.3000420678084 174.0Q553.3000420678084 178.0 549.3000420678084 178.0L4.0 178.0Q0.0 178.0 0.0 174.0Z" stroke="#323232" stroke-width="2.0" stroke-dasharray="none" opacity="1.0" fill="#99ccff"/></g><g id="ProcessOnG1010" transform="matrix(1.0,0.0,0.0,1.0,152.0,675.0)" opacity="1.0"><path id="ProcessOnPath1011" d="M0.0 0.0L92.92024962397035 0.0L92.92024962397035 42.18644853584079L0.0 42.18644853584079Z" stroke="none" stroke-width="0.0" stroke-dasharray="none" opacity="1.0" fill="none"/><g id="ProcessOnG1012" transform="matrix(1.0,0.0,0.0,1.0,0.0,12.968224267920395)"><text id="ProcessOnText1013" fill="#000000" font-size="13" x="45.460124811985175" y="13.325" font-family="微软雅黑" font-weight="normal" font-style="normal" text-decoration="none" family="微软雅黑" text-anchor="middle" size="13">硬件层</text></g></g><g id="ProcessOnG1014" transform="matrix(1.0,0.0,0.0,1.0,273.0,743.0)" opacity="1.0"><path id="ProcessOnPath1015" d="M0.0 0.0L514.6672099682637 0.0L514.6672099682637 27.0L0.0 27.0Z" stroke="#323232" stroke-width="2.0" stroke-dasharray="none" opacity="1.0" fill="#ffffff"/><g id="ProcessOnG1016" transform="matrix(1.0,0.0,0.0,1.0,10.0,5.375)"><text id="ProcessOnText1017" fill="#000000" font-size="13" x="246.33360498413185" y="13.325" font-family="微软雅黑" font-weight="normal" font-style="normal" text-decoration="none" family="微软雅黑" text-anchor="middle" size="13">2WD机械平台</text></g></g><g id="ProcessOnG1018" transform="matrix(1.0,0.0,0.0,1.0,253.68358395022767,458.5)" opacity="1.0"><path id="ProcessOnPath1019" d="M0.0 4.0Q0.0 0.0 4.0 0.0L549.3000420678084 0.0Q553.3000420678084 0.0 553.3000420678084 4.0L553.3000420678084 117.28883895439935Q553.3000420678084 121.28883895439935 549.3000420678084 121.28883895439935L4.0 121.28883895439935Q0.0 121.28883895439935 0.0 117.28883895439935Z" stroke="#323232" stroke-width="2.0" stroke-dasharray="none" opacity="1.0" fill="#99ff99"/></g><g id="ProcessOnG1020" transform="matrix(1.0,0.0,0.0,1.0,152.0,490.28883895439935)" opacity="1.0"><path id="ProcessOnPath1021" d="M0.0 0.0L92.92024962397035 0.0L92.92024962397035 42.18644853584079L0.0 42.18644853584079Z" stroke="none" stroke-width="0.0" stroke-dasharray="none" opacity="1.0" fill="none"/><g id="ProcessOnG1022" transform="matrix(1.0,0.0,0.0,1.0,0.0,12.968224267920395)"><text id="ProcessOnText1023" fill="#000000" font-size="13" x="45.460124811985175" y="13.325" font-family="微软雅黑" font-weight="normal" font-style="normal" text-decoration="none" family="微软雅黑" text-anchor="middle" size="13">驱动层</text></g></g><g id="ProcessOnG1024" transform="matrix(1.0,0.0,0.0,1.0,253.68358395022767,308.0932242679204)" opacity="1.0"><path id="ProcessOnPath1025" d="M0.0 4.0Q0.0 0.0 4.0 0.0L549.3000420678084 0.0Q553.3000420678084 0.0 553.3000420678084 4.0L553.3000420678084 113.90677573207961Q553.3000420678084 117.90677573207961 549.3000420678084 117.90677573207961L4.0 117.90677573207961Q0.0 117.90677573207961 0.0 113.90677573207961Z" stroke="#323232" stroke-width="2.0" stroke-dasharray="none" opacity="1.0" fill="#ff8000"/></g><g id="ProcessOnG1026" transform="matrix(1.0,0.0,0.0,1.0,152.0,340.9067757320796)" opacity="1.0"><path id="ProcessOnPath1027" d="M0.0 0.0L92.92024962397035 0.0L92.92024962397035 42.18644853584079L0.0 42.18644853584079Z" stroke="none" stroke-width="0.0" stroke-dasharray="none" opacity="1.0" fill="none"/><g id="ProcessOnG1028" transform="matrix(1.0,0.0,0.0,1.0,0.0,12.968224267920395)"><text id="ProcessOnText1029" fill="#000000" font-size="13" x="45.460124811985175" y="13.325" font-family="微软雅黑" font-weight="normal" font-style="normal" text-decoration="none" family="微软雅黑" text-anchor="middle" size="13">操作系统层</text></g></g><g id="ProcessOnG1030" transform="matrix(1.0,0.0,0.0,1.0,152.0,781.0)" opacity="1.0"><path id="ProcessOnPath1031" d="M0.0 10.384878600859436L690.5530817235151 10.384878600859436" stroke="#888888" stroke-width="1.0" stroke-dasharray="5.0 2.0" opacity="1.0" fill="none"/><path id="ProcessOnPath1032" d="M0.0 0.0L690.5530817235151 0.0L690.5530817235151 20.76975720171887L0.0 20.76975720171887Z" stroke="none" stroke-width="0.0" stroke-dasharray="0.0 0.0" opacity="1.0" fill="none"/></g><g id="ProcessOnG1033" transform="matrix(1.0,0.0,0.0,1.0,152.0,285.2302427982811)" opacity="1.0"><path id="ProcessOnPath1034" d="M0.0 10.384878600859436L690.5530817235151 10.384878600859436" stroke="#888888" stroke-width="1.0" stroke-dasharray="5.0 2.0" opacity="1.0" fill="none"/><path id="ProcessOnPath1035" d="M0.0 0.0L690.5530817235151 0.0L690.5530817235151 20.76975720171887L0.0 20.76975720171887Z" stroke="none" stroke-width="0.0" stroke-dasharray="0.0 0.0" opacity="1.0" fill="none"/></g><g id="ProcessOnG1036" transform="matrix(1.0,0.0,0.0,1.0,152.0,579.0)" opacity="1.0"><path id="ProcessOnPath1037" d="M0.0 10.384878600859436L690.5530817235151 10.384878600859436" stroke="#888888" stroke-width="1.0" stroke-dasharray="5.0 2.0" opacity="1.0" fill="none"/><path id="ProcessOnPath1038" d="M0.0 0.0L690.5530817235151 0.0L690.5530817235151 20.76975720171887L0.0 20.76975720171887Z" stroke="none" stroke-width="0.0" stroke-dasharray="0.0 0.0" opacity="1.0" fill="none"/></g><g id="ProcessOnG1039" transform="matrix(1.0,0.0,0.0,1.0,273.0,651.5)" opacity="1.0"><path id="ProcessOnPath1040" d="M0.0 0.0L126.0 0.0L126.0 57.0L0.0 57.0Z" stroke="#323232" stroke-width="2.0" stroke-dasharray="none" opacity="1.0" fill="#ffffff"/><g id="ProcessOnG1041" transform="matrix(1.0,0.0,0.0,1.0,10.0,20.375)"><text id="ProcessOnText1042" fill="#000000" font-size="13" x="52.0" y="13.325" font-family="微软雅黑" font-weight="normal" font-style="normal" text-decoration="none" family="微软雅黑" text-anchor="middle" size="13">astra深度摄像头</text></g></g><g id="ProcessOnG1043" transform="matrix(1.0,0.0,0.0,1.0,428.16633858264095,617.0)" opacity="1.0"><path id="ProcessOnPath1044" d="M0.0 0.0L359.50087138562264 0.0L359.50087138562264 118.0L0.0 118.0Z" stroke="#323232" stroke-width="2.0" stroke-dasharray="none" opacity="1.0" fill="#ffffff"/></g><g id="ProcessOnG1045" transform="matrix(1.0,0.0,0.0,1.0,438.2720974959277,656.0)" opacity="1.0"><path id="ProcessOnPath1046" d="M0.0 0.0L184.12301497640829 0.0L184.12301497640829 72.0L0.0 72.0Z" stroke="#323232" stroke-width="2.0" stroke-dasharray="none" opacity="1.0" fill="#ffffff"/></g><g id="ProcessOnG1047" transform="matrix(1.0,0.0,0.0,1.0,638.8456134998557,656.0)" opacity="1.0"><path id="ProcessOnPath1048" d="M0.0 0.0L137.15438650014426 0.0L137.15438650014426 72.0L0.0 72.0Z" stroke="#323232" stroke-width="2.0" stroke-dasharray="none" opacity="1.0" fill="#ffffff"/><g id="ProcessOnG1049" transform="matrix(1.0,0.0,0.0,1.0,10.0,27.875)"><text id="ProcessOnText1050" fill="#000000" font-size="13" x="57.57719325007213" y="13.325" font-family="微软雅黑" font-weight="normal" font-style="normal" text-decoration="none" family="微软雅黑" text-anchor="middle" size="13">L298N双路驱动板</text></g></g><g id="ProcessOnG1051" transform="matrix(1.0,0.0,0.0,1.0,516.5929239129265,623.0)" opacity="1.0"><path id="ProcessOnPath1052" d="M0.0 0.0L170.0 0.0L170.0 21.0L0.0 21.0Z" stroke="none" stroke-width="0.0" stroke-dasharray="none" opacity="1.0" fill="none"/><g id="ProcessOnG1053" transform="matrix(1.0,0.0,0.0,1.0,0.0,2.375)"><text id="ProcessOnText1054" fill="#000000" font-size="13" x="84.0" y="13.325" font-family="微软雅黑" font-weight="normal" font-style="normal" text-decoration="none" family="微软雅黑" text-anchor="middle" size="13">Arduino Mega 2560</text></g></g><g id="ProcessOnG1055" transform="matrix(1.0,0.0,0.0,1.0,280.0,480.28883895439935)" opacity="1.0"><path id="ProcessOnPath1056" d="M0.0 0.0L119.0 0.0L119.0 77.71116104560065L0.0 77.71116104560065Z" stroke="#323232" stroke-width="2.0" stroke-dasharray="none" opacity="1.0" fill="#ffffff"/><g id="ProcessOnG1057" transform="matrix(1.0,0.0,0.0,1.0,10.0,30.730580522800324)"><text id="ProcessOnText1058" fill="#000000" font-size="13" x="48.5" y="13.325" font-family="微软雅黑" font-weight="normal" font-style="normal" text-decoration="none" family="微软雅黑" text-anchor="middle" size="13">OpenNI驱动</text></g></g><g id="ProcessOnG1059" transform="matrix(1.0,0.0,0.0,1.0,428.16633858264106,479.28883895439935)" opacity="1.0"><path id="ProcessOnPath1060" d="M0.0 0.0L359.50087138562253 0.0L359.50087138562253 79.7111610456007L0.0 79.7111610456007Z" stroke="#323232" stroke-width="2.0" stroke-dasharray="none" opacity="1.0" fill="#ffffff"/><g id="ProcessOnG1061" transform="matrix(1.0,0.0,0.0,1.0,10.0,31.730580522800352)"><text id="ProcessOnText1062" fill="#000000" font-size="13" x="168.75043569281127" y="13.325" font-family="微软雅黑" font-weight="normal" font-style="normal" text-decoration="none" family="微软雅黑" text-anchor="middle" size="13">基础控制器</text></g></g><g id="ProcessOnG1063" transform="matrix(1.0,0.0,0.0,1.0,451.0,693.0)" opacity="1.0"><path id="ProcessOnPath1064" d="M0.0 0.0L74.54419499185542 0.0L74.54419499185542 27.0L0.0 27.0Z" stroke="#323232" stroke-width="2.0" stroke-dasharray="none" opacity="1.0" fill="#80ff00"/><g id="ProcessOnG1065" transform="matrix(1.0,0.0,0.0,1.0,10.0,5.375)"><text id="ProcessOnText1066" fill="#000000" font-size="13" x="26.27209749592771" y="13.325" font-family="微软雅黑" font-weight="normal" font-style="normal" text-decoration="none" family="微软雅黑" text-anchor="middle" size="13">编码器</text></g></g><g id="ProcessOnG1067" transform="matrix(1.0,0.0,0.0,1.0,539.6263405170463,693.0)" opacity="1.0"><path id="ProcessOnPath1068" d="M0.0 0.0L74.54419499185542 0.0L74.54419499185542 27.0L0.0 27.0Z" stroke="#323232" stroke-width="2.0" stroke-dasharray="none" opacity="1.0" fill="#80ff00"/><g id="ProcessOnG1069" transform="matrix(1.0,0.0,0.0,1.0,10.0,5.375)"><text id="ProcessOnText1070" fill="#000000" font-size="13" x="26.27209749592771" y="13.325" font-family="微软雅黑" font-weight="normal" font-style="normal" text-decoration="none" family="微软雅黑" text-anchor="middle" size="13">IMU</text></g></g><g id="ProcessOnG1071" transform="matrix(1.0,0.0,0.0,1.0,493.0,667.0)" opacity="1.0"><path id="ProcessOnPath1072" d="M0.0 0.0L74.6672099682637 0.0L74.6672099682637 18.0L0.0 18.0Z" stroke="none" stroke-width="0.0" stroke-dasharray="none" opacity="1.0" fill="none"/><g id="ProcessOnG1073" transform="matrix(1.0,0.0,0.0,1.0,0.0,0.875)"><text id="ProcessOnText1074" fill="#000000" font-size="13" x="36.33360498413185" y="13.325" font-family="微软雅黑" font-weight="normal" font-style="normal" text-decoration="none" family="微软雅黑" text-anchor="middle" size="13">里程计</text></g></g><g id="ProcessOnG1075"><path id="ProcessOnPath1076" d="M489.0 656.0L489.0 607.0L488.0 607.0L488.0 573.2360679774998" stroke="#323232" stroke-width="2.0" stroke-dasharray="none" fill="none" marker-end="url(#ProcessOnMarker1077)"/><g id="ProcessOnG1079" transform="matrix(1.0,0.0,0.0,1.0,489.0,605.9930339887499)"><path id="ProcessOnPath1080" d="M0 0H26.0V16.25H0Z" fill="#fff" transform="matrix(1.0,0.0,0.0,1.0,-13.0,0.0)"/><text id="ProcessOnText1081" fill="#000000" font-size="13" x="0.0" y="13.325" font-family="微软雅黑" font-weight="normal" font-style="normal" text-decoration="none" family="微软雅黑" text-anchor="middle" size="13">串口</text></g></g><g id="ProcessOnG1082"><path id="ProcessOnPath1083" d="M574.0 656.0L574.0 607.0L577.0 607.0L577.0 573.2360679774998" stroke="#323232" stroke-width="2.0" stroke-dasharray="none" fill="none" marker-end="url(#ProcessOnMarker1084)"/><g id="ProcessOnG1086" transform="matrix(1.0,0.0,0.0,1.0,574.0,604.9930339887499)"><path id="ProcessOnPath1087" d="M0 0H26.0V16.25H0Z" fill="#fff" transform="matrix(1.0,0.0,0.0,1.0,-13.0,0.0)"/><text id="ProcessOnText1088" fill="#000000" font-size="13" x="0.0" y="13.325" font-family="微软雅黑" font-weight="normal" font-style="normal" text-decoration="none" family="微软雅黑" text-anchor="middle" size="13">串口</text></g></g><g id="ProcessOnG1089"><path id="ProcessOnPath1090" d="M305.0 652.0L305.0 604.5L305.0 604.5L305.0 572.2360679774998" stroke="#323232" stroke-width="2.0" stroke-dasharray="none" fill="none" marker-end="url(#ProcessOnMarker1091)"/><g id="ProcessOnG1093" transform="matrix(1.0,0.0,0.0,1.0,305.0,603.9930339887499)"><path id="ProcessOnPath1094" d="M0 0H26.0V16.25H0Z" fill="#fff" transform="matrix(1.0,0.0,0.0,1.0,-13.0,0.0)"/><text id="ProcessOnText1095" fill="#000000" font-size="13" x="0.0" y="13.325" font-family="微软雅黑" font-weight="normal" font-style="normal" text-decoration="none" family="微软雅黑" text-anchor="middle" size="13">USB</text></g></g><g id="ProcessOnG1096"><path id="ProcessOnPath1097" d="M363.0 652.0L363.0 604.5L363.0 604.5L363.0 572.2360679774998" stroke="#323232" stroke-width="2.0" stroke-dasharray="none" fill="none" marker-end="url(#ProcessOnMarker1098)"/><g id="ProcessOnG1100" transform="matrix(1.0,0.0,0.0,1.0,363.0,603.9930339887499)"><path id="ProcessOnPath1101" d="M0 0H26.0V16.25H0Z" fill="#fff" transform="matrix(1.0,0.0,0.0,1.0,-13.0,0.0)"/><text id="ProcessOnText1102" fill="#000000" font-size="13" x="0.0" y="13.325" font-family="微软雅黑" font-weight="normal" font-style="normal" text-decoration="none" family="微软雅黑" text-anchor="middle" size="13">USB</text></g></g><g id="ProcessOnG1103" transform="matrix(1.0,0.0,0.0,1.0,601.5648330288423,325.0)" opacity="1.0"><path id="ProcessOnPath1104" d="M0.0 0.0L186.10237693942133 0.0L186.10237693942133 84.09322426792039L0.0 84.09322426792039Z" stroke="#323232" stroke-width="2.0" stroke-dasharray="none" opacity="1.0" fill="#ffffff"/><g id="ProcessOnG1105" transform="matrix(1.0,0.0,0.0,1.0,10.0,33.921612133960195)"><text id="ProcessOnText1106" fill="#000000" font-size="13" x="82.05118846971067" y="13.325" font-family="微软雅黑" font-weight="normal" font-style="normal" text-decoration="none" family="微软雅黑" text-anchor="middle" size="13">导航功能包栈</text></g></g><g id="ProcessOnG1107" transform="matrix(1.0,0.0,0.0,1.0,431.0,366.0932242679204)" opacity="1.0"><path id="ProcessOnPath1108" d="M0.0 0.0L107.82946449109829 0.0L107.82946449109829 43.0L0.0 43.0Z" stroke="#323232" stroke-width="2.0" stroke-dasharray="none" opacity="1.0" fill="#ffffff"/><g id="ProcessOnG1109" transform="matrix(1.0,0.0,0.0,1.0,10.0,13.375)"><text id="ProcessOnText1110" fill="#000000" font-size="13" x="42.914732245549146" y="13.325" font-family="微软雅黑" font-weight="normal" font-style="normal" text-decoration="none" family="微软雅黑" text-anchor="middle" size="13">数据融合</text></g></g><g id="ProcessOnG1111" transform="matrix(1.0,0.0,0.0,1.0,280.0,366.0932242679204)" opacity="1.0"><path id="ProcessOnPath1112" d="M0.0 0.0L119.0 0.0L119.0 43.0L0.0 43.0Z" stroke="#323232" stroke-width="2.0" stroke-dasharray="none" opacity="1.0" fill="#ffffff"/><g id="ProcessOnG1113" transform="matrix(1.0,0.0,0.0,1.0,10.0,13.375)"><text id="ProcessOnText1114" fill="#000000" font-size="13" x="48.5" y="13.325" font-family="微软雅黑" font-weight="normal" font-style="normal" text-decoration="none" family="微软雅黑" text-anchor="middle" size="13">数据处理</text></g></g><g id="ProcessOnG1115"><path id="ProcessOnPath1116" d="M485.0 480.0L485.0 444.5466121339602L484.9147322455492 444.5466121339602L484.9147322455492 424.32929224542016" stroke="#323232" stroke-width="2.0" stroke-dasharray="none" fill="none" marker-end="url(#ProcessOnMarker1117)"/><g id="ProcessOnG1119" transform="matrix(1.0,0.0,0.0,1.0,485.0,443.9970122454847)"><path id="ProcessOnPath1120" d="M0 0H42.0V16.25H0Z" fill="#fff" transform="matrix(1.0,0.0,0.0,1.0,-21.0,0.0)"/><text id="ProcessOnText1121" fill="#000000" font-size="13" x="0.0" y="13.325" font-family="微软雅黑" font-weight="normal" font-style="normal" text-decoration="none" family="微软雅黑" text-anchor="middle" size="13">TCP/IP</text></g></g><g id="ProcessOnG1122"><path id="ProcessOnPath1123" d="M339.5 480.28883895439935L339.5 444.6910316111599L339.5 444.6910316111599L339.5 424.32929224542016" stroke="#323232" stroke-width="2.0" stroke-dasharray="none" fill="none" marker-end="url(#ProcessOnMarker1124)"/><g id="ProcessOnG1126" transform="matrix(1.0,0.0,0.0,1.0,339.5,444.1840655999098)"><path id="ProcessOnPath1127" d="M0 0H42.0V16.25H0Z" fill="#fff" transform="matrix(1.0,0.0,0.0,1.0,-21.0,0.0)"/><text id="ProcessOnText1128" fill="#000000" font-size="13" x="0.0" y="13.325" font-family="微软雅黑" font-weight="normal" font-style="normal" text-decoration="none" family="微软雅黑" text-anchor="middle" size="13">TCP/IP</text></g></g><g id="ProcessOnG1129"><path id="ProcessOnPath1130" d="M666.0 409.0L666.0 444.5L666.0 444.5L666.0 464.7639320225002" stroke="#323232" stroke-width="2.0" stroke-dasharray="none" fill="none" marker-end="url(#ProcessOnMarker1131)"/><g id="ProcessOnG1133" transform="matrix(1.0,0.0,0.0,1.0,666.0,428.75696601125014)"><path id="ProcessOnPath1134" d="M0 0H42.0V16.25H0Z" fill="#fff" transform="matrix(1.0,0.0,0.0,1.0,-21.0,0.0)"/><text id="ProcessOnText1135" fill="#000000" font-size="13" x="0.0" y="13.325" font-family="微软雅黑" font-weight="normal" font-style="normal" text-decoration="none" family="微软雅黑" text-anchor="middle" size="13">TCP/IP</text></g></g><g id="ProcessOnG1136"><path id="ProcessOnPath1137" d="M728.0 409.0L728.0 444.5L728.0 444.5L728.0 464.7639320225002" stroke="#323232" stroke-width="2.0" stroke-dasharray="none" fill="none" marker-end="url(#ProcessOnMarker1138)"/><g id="ProcessOnG1140" transform="matrix(1.0,0.0,0.0,1.0,728.0,428.75696601125014)"><path id="ProcessOnPath1141" d="M0 0H42.0V16.25H0Z" fill="#fff" transform="matrix(1.0,0.0,0.0,1.0,-21.0,0.0)"/><text id="ProcessOnText1142" fill="#000000" font-size="13" x="0.0" y="13.325" font-family="微软雅黑" font-weight="normal" font-style="normal" text-decoration="none" family="微软雅黑" text-anchor="middle" size="13">TCP/IP</text></g></g><g id="ProcessOnG1143"><path id="ProcessOnPath1144" d="M339.5 366.0932242679204L339.5 344.0L586.7639320225002 344.0" stroke="#323232" stroke-width="2.0" stroke-dasharray="none" fill="none" marker-end="url(#ProcessOnMarker1145)"/></g><g id="ProcessOnG1147"><path id="ProcessOnPath1148" d="M538.8294644910983 387.5932242679204L569.4147322455492 387.5932242679204L569.4147322455492 387.5932242679204L584.7639320225002 387.5932242679204" stroke="#323232" stroke-width="2.0" stroke-dasharray="none" fill="none" marker-end="url(#ProcessOnMarker1149)"/></g><g id="ProcessOnG1151"><path id="ProcessOnPath1152" d="M707.4228067499279 559.0L707.4228067499279 607.5L707.4228067499279 607.5L707.4228067499279 640.7639320225002" stroke="#323232" stroke-width="2.0" stroke-dasharray="none" fill="none" marker-end="url(#ProcessOnMarker1153)"/><g id="ProcessOnG1155" transform="matrix(1.0,0.0,0.0,1.0,707.4228067499279,591.7569660112501)"><path id="ProcessOnPath1156" d="M0 0H26.0V16.25H0Z" fill="#fff" transform="matrix(1.0,0.0,0.0,1.0,-13.0,0.0)"/><text id="ProcessOnText1157" fill="#000000" font-size="13" x="0.0" y="13.325" font-family="微软雅黑" font-weight="normal" font-style="normal" text-decoration="none" family="微软雅黑" text-anchor="middle" size="13">串口</text></g></g></g></g></svg>